<svg class="col-sm-6 col-lg-3" xmlns="http://www.w3.org/2000/svg" x="0px" y="0px"
      width="116" height="116"
      viewBox="0 0 172 172"
      style=" fill:#000000;"><g transform="translate(25.8,25.8) scale(0.7,0.7)"><g fill="none" fill-rule="nonzero" stroke="none" stroke-width="none" stroke-linecap="butt" stroke-linejoin="miter" stroke-miterlimit="10" stroke-dasharray="" stroke-dashoffset="0" font-family="none" font-weight="none" font-size="none" text-anchor="none" style="mix-blend-mode: normal"><path d="M0,172v-172h172v172z" fill="none" stroke="none" stroke-width="1"></path><g fill="#34495e" stroke="none" stroke-width="1"><path d="M21.5,26.875v80.625h16.125v21.5l21.5,-17.1958v-13.77344l-10.75,8.6084v-9.88916h-16.125v-59.125h59.125v16.125h10.75v-26.875zM59.125,43c-11.825,0 -16.125,9.675 -16.125,16.125h10.75c0,-2.6875 1.075,-5.375 5.375,-5.375c4.3,0 5.375,2.6875 5.375,5.375c0,2.6875 -2.6917,4.3021 -4.3042,4.8396h-1.0708c-3.225,1.075 -5.375,4.3 -5.375,8.0625v3.2229h10.75v-1.6167c1.87154,-0.74862 3.73036,-1.90733 5.375,-3.36987v69.48657h37.625l26.875,21.5v-21.5h16.125v-75.25h-76.39429c0.70757,-1.6507 1.14429,-3.44396 1.14429,-5.375c0,-6.45 -4.3,-16.125 -16.125,-16.125zM80.625,75.25h59.125v53.75h-5.375h-10.75v9.88916l-9.41675,-7.5271l-2.93945,-2.36206h-3.7688h-26.875zM53.75,80.625v10.75h10.75v-10.75zM107.5,80.625l-16.125,16.125l16.125,16.125v-10.75h10.75v16.125h10.75v-26.875h-21.5z"></path></g><g fill="#34495e" stroke="none" stroke-width="1"><path d="M-25.32857,5.23286h-4.52v7.51h-2.53v-19.2h7.08c2.1,0 3.74333,0.53667 4.93,1.61c1.19333,1.07333 1.79,2.49333 1.79,4.26v0c0,1.86667 -0.58333,3.30333 -1.75,4.31c-1.16,1.00667 -2.82667,1.51 -5,1.51zM-29.84857,-4.36714v7.53h4.55c1.35333,0 2.39,-0.32 3.11,-0.96c0.72,-0.64 1.08,-1.56 1.08,-2.76v0c0,-1.14667 -0.36,-2.06 -1.08,-2.74c-0.72,-0.68667 -1.71,-1.04333 -2.97,-1.07v0zM-4.13857,12.74286l-4.17,-7.77h-4.51v7.77h-2.54v-19.2h6.35c2.16667,0 3.83,0.49333 4.99,1.48c1.16667,0.98667 1.75,2.42 1.75,4.3v0c0,1.19333 -0.32333,2.23333 -0.97,3.12c-0.64667,0.89333 -1.54667,1.55667 -2.7,1.99v0l4.51,8.15v0.16zM-12.81857,-4.36714v7.28h3.89c1.26,0 2.26,-0.32667 3,-0.98c0.74,-0.65333 1.11,-1.52333 1.11,-2.61v0c0,-1.18667 -0.35333,-2.09667 -1.06,-2.73c-0.70667,-0.63333 -1.72667,-0.95333 -3.06,-0.96v0zM16.04143,2.55286v1.21c0,1.88 -0.31667,3.52333 -0.95,4.93c-0.63333,1.4 -1.53,2.47 -2.69,3.21c-1.16,0.73333 -2.51333,1.1 -4.06,1.1v0c-1.51333,0 -2.85333,-0.37 -4.02,-1.11c-1.16667,-0.74 -2.07333,-1.8 -2.72,-3.18c-0.64667,-1.37333 -0.98,-2.96667 -1,-4.78v0v-1.38c0,-1.84667 0.32333,-3.47667 0.97,-4.89c0.64,-1.41333 1.54667,-2.49667 2.72,-3.25c1.17333,-0.75333 2.51667,-1.13 4.03,-1.13v0c1.53333,0 2.88667,0.37333 4.06,1.12c1.17333,0.74 2.07667,1.81667 2.71,3.23c0.63333,1.40667 0.95,3.04667 0.95,4.92zM13.52143,3.95286v-1.43c0,-2.27333 -0.45667,-4.02 -1.37,-5.24c-0.91333,-1.21333 -2.19,-1.82 -3.83,-1.82v0c-1.6,0 -2.86,0.60667 -3.78,1.82c-0.92,1.22 -1.39333,2.91 -1.42,5.07v0v1.41c0,2.20667 0.46333,3.94 1.39,5.2c0.92667,1.26 2.20333,1.89 3.83,1.89v0c1.63333,0 2.9,-0.59333 3.8,-1.78c0.89333,-1.19333 1.35333,-2.9 1.38,-5.12zM26.50143,12.74286h-6.66v-19.2h6.27c2.08667,0 3.65333,0.43333 4.7,1.3c1.05333,0.86 1.58,2.13333 1.58,3.82v0c0,0.89333 -0.25667,1.68667 -0.77,2.38c-0.50667,0.68667 -1.2,1.22 -2.08,1.6v0c1.04,0.29333 1.86,0.84667 2.46,1.66c0.6,0.81333 0.9,1.78 0.9,2.9v0c0,1.72667 -0.55667,3.08 -1.67,4.06c-1.12,0.98667 -2.69667,1.48 -4.73,1.48zM26.59143,3.76286h-4.22v6.91h4.18c1.18,0 2.11,-0.30667 2.79,-0.92c0.68,-0.60667 1.02,-1.44667 1.02,-2.52v0c0,-2.31333 -1.25667,-3.47 -3.77,-3.47zM22.37143,-4.36714v6.1h3.82c1.10667,0 1.99333,-0.27667 2.66,-0.83c0.66,-0.55333 0.99,-1.30333 0.99,-2.25v0c0,-1.06 -0.30667,-1.82667 -0.92,-2.3c-0.61333,-0.48 -1.55,-0.72 -2.81,-0.72v0zM39.19143,-6.45714v17.13h9.1v2.07h-11.64v-19.2zM62.03143,1.80286v2.07h-8.32v6.8h9.66v2.07h-12.19v-19.2h12.06v2.09h-9.53v6.17zM66.52143,-6.45714h3.27l6.28,15.67l6.27,-15.67h3.28v19.2h-2.53v-7.48l0.24,-8.06l-6.3,15.54h-1.94l-6.29,-15.5l0.25,8.02v7.48h-2.53zM102.43143,4.18286v0c-2.16667,-0.62 -3.74667,-1.38667 -4.74,-2.3c-0.98667,-0.90667 -1.48,-2.03 -1.48,-3.37v0c0,-1.50667 0.60333,-2.75667 1.81,-3.75c1.21333,-0.98667 2.78667,-1.48 4.72,-1.48v0c1.31333,0 2.48667,0.25667 3.52,0.77c1.03333,0.50667 1.83333,1.21 2.4,2.11c0.56667,0.89333 0.85,1.87 0.85,2.93v0h-2.54c0,-1.16 -0.37,-2.07 -1.11,-2.73c-0.74,-0.66667 -1.78,-1 -3.12,-1v0c-1.25333,0 -2.22667,0.27667 -2.92,0.83c-0.7,0.54667 -1.05,1.31 -1.05,2.29v0c0,0.78 0.33,1.44 0.99,1.98c0.66667,0.54 1.79667,1.03333 3.39,1.48c1.59333,0.45333 2.84333,0.95 3.75,1.49c0.9,0.54 1.56667,1.17 2,1.89c0.43333,0.72 0.65,1.56667 0.65,2.54v0c0,1.56 -0.60667,2.80667 -1.82,3.74c-1.21333,0.93333 -2.83333,1.4 -4.86,1.4v0c-1.32,0 -2.55,-0.25 -3.69,-0.75c-1.14667,-0.50667 -2.03,-1.2 -2.65,-2.08c-0.62,-0.88 -0.93,-1.87667 -0.93,-2.99v0h2.55c0,1.16 0.42667,2.07667 1.28,2.75c0.86,0.66667 2.00667,1 3.44,1v0c1.33333,0 2.35667,-0.27 3.07,-0.81c0.71333,-0.54667 1.07,-1.29 1.07,-2.23c0,-0.94 -0.33,-1.66667 -0.99,-2.18c-0.66,-0.51333 -1.85667,-1.02333 -3.59,-1.53zM127.56143,2.55286v1.21c0,1.88 -0.31667,3.52333 -0.95,4.93c-0.63333,1.4 -1.53,2.47 -2.69,3.21c-1.16,0.73333 -2.51333,1.1 -4.06,1.1v0c-1.51333,0 -2.85333,-0.37 -4.02,-1.11c-1.16667,-0.74 -2.07333,-1.8 -2.72,-3.18c-0.64667,-1.37333 -0.98,-2.96667 -1,-4.78v0v-1.38c0,-1.84667 0.32333,-3.47667 0.97,-4.89c0.64,-1.41333 1.54667,-2.49667 2.72,-3.25c1.17333,-0.75333 2.51667,-1.13 4.03,-1.13v0c1.53333,0 2.88667,0.37333 4.06,1.12c1.17333,0.74 2.07667,1.81667 2.71,3.23c0.63333,1.40667 0.95,3.04667 0.95,4.92zM125.04143,3.95286v-1.43c0,-2.27333 -0.45667,-4.02 -1.37,-5.24c-0.91333,-1.21333 -2.19,-1.82 -3.83,-1.82v0c-1.6,0 -2.86,0.60667 -3.78,1.82c-0.92,1.22 -1.39333,2.91 -1.42,5.07v0v1.41c0,2.20667 0.46333,3.94 1.39,5.2c0.92667,1.26 2.20333,1.89 3.83,1.89v0c1.63333,0 2.9,-0.59333 3.8,-1.78c0.89333,-1.19333 1.35333,-2.9 1.38,-5.12zM133.90143,-6.45714v17.13h9.1v2.07h-11.64v-19.2zM144.48143,-6.45714l5.45,15.84l5.49,-15.84h2.77l-7.12,19.2h-2.24l-7.11,-19.2zM163.47143,-6.45714v19.2h-2.53v-19.2zM182.85143,-6.45714v19.2h-2.54l-9.66,-14.79v14.79h-2.55v-19.2h2.55l9.69,14.86v-14.86zM201.52143,3.18286v7.04c-0.64667,0.93333 -1.55333,1.63 -2.72,2.09c-1.16667,0.46 -2.52333,0.69 -4.07,0.69v0c-1.56,0 -2.94667,-0.36667 -4.16,-1.1c-1.21333,-0.73333 -2.15333,-1.77667 -2.82,-3.13c-0.66,-1.35333 -1,-2.92 -1.02,-4.7v0v-1.68c0,-2.89333 0.67333,-5.13333 2.02,-6.72c1.35333,-1.59333 3.25,-2.39 5.69,-2.39v0c2.00667,0 3.62,0.51333 4.84,1.54c1.22,1.02 1.96667,2.47 2.24,4.35v0h-2.53c-0.47333,-2.54 -1.98667,-3.81 -4.54,-3.81v0c-1.69333,0 -2.97667,0.59667 -3.85,1.79c-0.87333,1.19333 -1.31667,2.91667 -1.33,5.17v0v1.57c0,2.15333 0.49333,3.86667 1.48,5.14c0.98667,1.26667 2.31667,1.9 3.99,1.9v0c0.95333,0 1.78667,-0.10333 2.5,-0.31c0.70667,-0.21333 1.29333,-0.57 1.76,-1.07v0v-4.31h-4.44v-2.06z"></path></g><path d="M-42.37857,23.00286v-39.72h253.9v39.72z" fill="#ff0000" stroke="#50e3c2" stroke-width="3" opacity="0"></path></g></g></svg> 

  