<svg class="col-md-4 col-sm-6 col-lg-2 icon" xmlns="http://www.w3.org/2000/svg" x="0px" y="0px"
width="128" height="128"
viewBox="0 0 172 172"
style=" fill:#000000;">
<g transform="translate(25.8,25.8) scale(0.7,0.7)">
<g fill-rule="nonzero" stroke="none" stroke-width="1" stroke-linecap="butt" stroke-linejoin="miter" stroke-miterlimit="10" stroke-dasharray="" stroke-dashoffset="0" font-family="none" font-size="none" style="mix-blend-mode: normal">
<path d="M0,172v-172h172v172z" fill="none" stroke="none">
</path>
<g stroke="none">
<path d="M13.47781,19.46825l14.68988,121.59863c0.52138,4.30806 3.59319,7.88781 7.79375,9.08106l47.12531,13.37569c1.90544,0.54019 3.92375,0.55363 5.83725,0.03494l49.56287,-13.42675c4.33763,-1.17444 7.49544,-4.88319 7.94156,-9.32831l12.22544,-121.44006c0.31981,-3.17394 -2.18762,-5.92594 -5.39919,-5.92594h-134.39112c-3.25187,0 -5.77544,2.82456 -5.38575,6.03075z" fill="#cccccc">
</path>
<path d="M153.25469,13.4375h-67.25469v150.5c0.98363,0.00538 1.96725,-0.12094 2.924,-0.37894l49.56287,-13.42675c4.33763,-1.17444 7.49544,-4.88319 7.94156,-9.32831l12.22544,-121.44006c0.31981,-3.17394 -2.18762,-5.92594 -5.39919,-5.92594z" fill="#cccccc">
</path>
<path d="M86.06719,166.625c-1.24969,0 -2.50206,-0.172 -3.71681,-0.516l-47.12531,-13.37569c-5.25406,-1.49156 -9.073,-5.94206 -9.72875,-11.34394l-14.68987,-121.59862c-0.27681,-2.28437 0.44344,-4.58219 1.96994,-6.30756c1.54263,-1.73612 3.75981,-2.73319 6.08987,-2.73319h134.39112c2.29512,0 4.4935,0.97288 6.03075,2.67406c1.52381,1.68775 2.27094,3.95063 2.0425,6.21081l-12.22813,121.44006c-0.559,5.51475 -4.54188,10.19637 -9.91688,11.64762l-49.5575,13.42675c-1.16637,0.31713 -2.36231,0.47569 -3.56094,0.47569zM18.86625,16.125c-0.80356,0 -1.53725,0.32787 -2.064,0.9245c-0.516,0.58319 -0.74981,1.32762 -0.65575,2.09625v0l14.68988,121.59863c0.39238,3.24381 2.69288,5.92056 5.85875,6.81819l47.128,13.37569c1.43781,0.40581 2.95625,0.41656 4.39944,0.02687l49.56019,-13.42675c3.23844,-0.87613 5.64106,-3.68994 5.97431,-7.00094l12.22544,-121.44275c0.07525,-0.76056 -0.16662,-1.49425 -0.67994,-2.06669c-0.52944,-0.58319 -1.25775,-0.903 -2.04788,-0.903z" fill="#34495e">
</path>
<path d="M18.8125,32.25c-1.48619,0 -2.6875,-1.20131 -2.6875,-2.6875v-5.375c0,-1.48619 1.20131,-2.6875 2.6875,-2.6875c1.48619,0 2.6875,1.20131 2.6875,2.6875v5.375c0,1.48619 -1.20131,2.6875 -2.6875,2.6875zM32.25,32.25c-1.48619,0 -2.6875,-1.20131 -2.6875,-2.6875v-5.375c0,-1.48619 1.20131,-2.6875 2.6875,-2.6875c1.48619,0 2.6875,1.20131 2.6875,2.6875v5.375c0,1.48619 -1.20131,2.6875 -2.6875,2.6875zM45.6875,32.25c-1.48619,0 -2.6875,-1.20131 -2.6875,-2.6875v-5.375c0,-1.48619 1.20131,-2.6875 2.6875,-2.6875c1.48619,0 2.6875,1.20131 2.6875,2.6875v5.375c0,1.48619 -1.20131,2.6875 -2.6875,2.6875zM59.125,32.25c-1.48619,0 -2.6875,-1.20131 -2.6875,-2.6875v-5.375c0,-1.48619 1.20131,-2.6875 2.6875,-2.6875c1.48619,0 2.6875,1.20131 2.6875,2.6875v5.375c0,1.48619 -1.20131,2.6875 -2.6875,2.6875zM72.5625,32.25c-1.48619,0 -2.6875,-1.20131 -2.6875,-2.6875v-5.375c0,-1.48619 1.20131,-2.6875 2.6875,-2.6875c1.48619,0 2.6875,1.20131 2.6875,2.6875v5.375c0,1.48619 -1.20131,2.6875 -2.6875,2.6875zM86,32.25c-1.48619,0 -2.6875,-1.20131 -2.6875,-2.6875v-5.375c0,-1.48619 1.20131,-2.6875 2.6875,-2.6875c1.48619,0 2.6875,1.20131 2.6875,2.6875v5.375c0,1.48619 -1.20131,2.6875 -2.6875,2.6875zM99.4375,32.25c-1.48619,0 -2.6875,-1.20131 -2.6875,-2.6875v-5.375c0,-1.48619 1.20131,-2.6875 2.6875,-2.6875c1.48619,0 2.6875,1.20131 2.6875,2.6875v5.375c0,1.48619 -1.20131,2.6875 -2.6875,2.6875zM112.875,32.25c-1.48619,0 -2.6875,-1.20131 -2.6875,-2.6875v-5.375c0,-1.48619 1.20131,-2.6875 2.6875,-2.6875c1.48619,0 2.6875,1.20131 2.6875,2.6875v5.375c0,1.48619 -1.20131,2.6875 -2.6875,2.6875zM126.3125,32.25c-1.48619,0 -2.6875,-1.20131 -2.6875,-2.6875v-5.375c0,-1.48619 1.20131,-2.6875 2.6875,-2.6875c1.48619,0 2.6875,1.20131 2.6875,2.6875v5.375c0,1.48619 -1.20131,2.6875 -2.6875,2.6875zM139.75,32.25c-1.48619,0 -2.6875,-1.20131 -2.6875,-2.6875v-5.375c0,-1.48619 1.20131,-2.6875 2.6875,-2.6875c1.48619,0 2.6875,1.20131 2.6875,2.6875v5.375c0,1.48619 -1.20131,2.6875 -2.6875,2.6875zM153.1875,32.25c-1.48619,0 -2.6875,-1.20131 -2.6875,-2.6875v-5.375c0,-1.48619 1.20131,-2.6875 2.6875,-2.6875c1.48619,0 2.6875,1.20131 2.6875,2.6875v5.375c0,1.48619 -1.20131,2.6875 -2.6875,2.6875zM107.49731,147.29113c-1.1825,0 -2.26825,-0.78744 -2.59075,-1.98337c-0.38969,-1.43244 0.45688,-2.90788 1.88931,-3.29756l5.375,-1.45663c1.43512,-0.39238 2.91056,0.45687 3.29756,1.88931c0.38969,1.43244 -0.45687,2.90787 -1.88931,3.29756l-5.375,1.45663c-0.2365,0.0645 -0.473,0.09406 -0.70681,0.09406zM86.0645,153.19556l-14.23838,-4.042c-1.42706,-0.40312 -2.2575,-1.892 -1.849,-3.31906c0.40313,-1.42706 1.88394,-2.26288 3.31906,-1.849l12.80056,3.6335l9.94912,-2.69288c1.43512,-0.39775 2.91056,0.45687 3.29756,1.88931c0.38969,1.43244 -0.45688,2.91056 -1.88931,3.29756z" fill="#34495e">
</path>
<path d="M41.65625,80.625l3.32712,6.07913l6.07913,3.32712l-6.07913,3.32712l-3.32712,6.07913l-3.32712,-6.07913l-6.07913,-3.32712l6.07913,-3.32712zM127.66163,126.3125l2.35425,4.32688l4.35913,2.39725l-4.35913,2.35425l-2.35425,4.35913l-2.39725,-4.35913l-4.32688,-2.35425l4.32688,-2.39725zM141.1045,61.8125l1.42706,2.58537l2.59344,1.4405l-2.59613,1.42169l-1.42437,2.61494l-1.44588,-2.61494l-2.59613,-1.42169l2.59613,-1.4405z" fill="#fff8f8">
</path>
<path d="M126.36088,45.6875h-80.67338c-1.65013,0 -2.91056,1.47275 -2.65256,3.10406l2.05056,13.02094h66.10713l-1.90544,16.125h-42.09969v16.125h40.19425l-2.42144,20.49219l-18.70769,5.70288l-16.52006,-5.59538l-1.19325,-7.58144c-0.20694,-1.30613 -1.333,-2.26825 -2.65525,-2.26825h-10.88169c-1.65013,0 -2.91056,1.47544 -2.65525,3.10675l2.72512,17.30481c0.15319,0.97288 0.83312,1.78181 1.76837,2.09625l28.36119,9.60512c0.27144,0.09137 0.55094,0.13706 0.83312,0.13706c0.25531,0 0.51062,-0.03763 0.75787,-0.11288l31.29056,-9.53525c1.00513,-0.30637 1.73613,-1.17981 1.85706,-2.22256l7.76956,-65.74969l1.27656,-10.80106c0.18544,-1.57219 -1.04275,-2.95356 -2.62569,-2.95356z" fill="#faefde">
</path>
<path d="M86.03763,139.75c-0.56706,0 -1.13144,-0.09137 -1.677,-0.27412l-28.38,-9.6105c-1.88394,-0.63425 -3.24919,-2.25212 -3.56094,-4.21937l-2.72781,-17.31019c-0.24456,-1.55338 0.20156,-3.13094 1.22281,-4.32688c1.02394,-1.19594 2.51281,-1.88125 4.08769,-1.88125h10.88438c2.66331,0 4.89662,1.91081 5.3105,4.54187l0.94063,5.97163l14.16313,4.7945l16.20294,-4.93694l1.85437,-15.74875h-37.17081c-1.48619,0 -2.6875,-1.20131 -2.6875,-2.6875v-16.125c0,-1.48619 1.20131,-2.6875 2.6875,-2.6875h39.7105l1.27119,-10.75h-63.08637c-1.32225,0 -2.44831,-0.96213 -2.65525,-2.27094l-2.05056,-13.02363c-0.24456,-1.55069 0.20156,-3.12825 1.22281,-4.32419c1.02394,-1.19594 2.51281,-1.88125 4.08769,-1.88125h80.67606c1.52112,0 2.97237,0.65306 3.98556,1.78988c1.00781,1.13681 1.48619,2.65525 1.30612,4.16831l-9.04344,76.54538c-0.24994,2.10162 -1.71731,3.86194 -3.74369,4.47737l-31.29056,9.54063c-0.49719,0.15319 -1.01587,0.22844 -1.53994,0.22844zM55.00238,107.5l2.72781,17.30481l28.33431,9.57556l31.23681,-9.54063l9.01119,-76.46475h-80.625l1.69312,10.75h63.812c0.76863,0 1.49962,0.32787 2.00756,0.903c0.51062,0.57244 0.74981,1.33837 0.66113,2.09894l-1.90544,16.125c-0.15856,1.3545 -1.30612,2.37306 -2.66869,2.37306h-39.41219v10.75h37.50675c0.76594,0 1.49962,0.32788 2.00756,0.903c0.51063,0.57244 0.74981,1.33837 0.66113,2.09894l-2.41875,20.49219c-0.12631,1.06156 -0.86538,1.94575 -1.88394,2.25481l-18.70769,5.70288c-0.54019,0.16662 -1.11531,0.15856 -1.64475,-0.02419l-16.52006,-5.59538c-0.94869,-0.31981 -1.63669,-1.1395 -1.79525,-2.1285l-1.19594,-7.57875z" fill="#34495e">
</path>
</g>
<g fill="#34495e" stroke="none">
<path d="M61.17059,-2.77h4.52c-0.42,3.61333 -1.75,6.4 -3.99,8.36c-2.24667,1.96 -5.22667,2.94 -8.94,2.94v0c-4.03333,0 -7.26667,-1.44667 -9.7,-4.34c-2.42667,-2.88667 -3.64,-6.75333 -3.64,-11.6v0v-3.28c0,-3.17333 0.56667,-5.96333 1.7,-8.37c1.13333,-2.40667 2.73667,-4.25333 4.81,-5.54c2.08,-1.28667 4.48667,-1.93 7.22,-1.93v0c3.62667,0 6.53333,1.01 8.72,3.03c2.18667,2.02667 3.46,4.82667 3.82,8.4v0h-4.52c-0.39333,-2.71333 -1.24,-4.68 -2.54,-5.9c-1.30667,-1.22 -3.13333,-1.83 -5.48,-1.83v0c-2.87333,0 -5.12667,1.06333 -6.76,3.19c-1.63333,2.12 -2.45,5.14333 -2.45,9.07v0v3.3c0,3.70667 0.77333,6.65333 2.32,8.84c1.54667,2.18667 3.71333,3.28 6.5,3.28v0c2.5,0 4.41667,-0.56667 5.75,-1.7c1.33333,-1.13333 2.22,-3.10667 2.66,-5.92zM81.89059,-7.15v0c-3.86,-1.10667 -6.67,-2.47 -8.43,-4.09c-1.75333,-1.62 -2.63,-3.61667 -2.63,-5.99v0c0,-2.68667 1.07333,-4.91 3.22,-6.67c2.14667,-1.75333 4.94,-2.63 8.38,-2.63v0c2.34,0 4.43,0.45333 6.27,1.36c1.83333,0.90667 3.25333,2.15667 4.26,3.75c1.00667,1.59333 1.51,3.33333 1.51,5.22v0h-4.52c0,-2.06 -0.65667,-3.68 -1.97,-4.86c-1.31333,-1.18 -3.16333,-1.77 -5.55,-1.77v0c-2.22,0 -3.95,0.48667 -5.19,1.46c-1.24667,0.98 -1.87,2.33667 -1.87,4.07v0c0,1.39333 0.59,2.57 1.77,3.53c1.18,0.96 3.19,1.83667 6.03,2.63c2.83333,0.8 5.05,1.68 6.65,2.64c1.6,0.96 2.78667,2.08 3.56,3.36c0.77333,1.28667 1.16,2.79667 1.16,4.53v0c0,2.76667 -1.07667,4.98 -3.23,6.64c-2.15333,1.66667 -5.03667,2.5 -8.65,2.5v0c-2.34,0 -4.52667,-0.45 -6.56,-1.35c-2.03333,-0.9 -3.6,-2.13 -4.7,-3.69c-1.1,-1.56 -1.65,-3.33333 -1.65,-5.32v0h4.52c0,2.06 0.76333,3.69 2.29,4.89c1.52,1.19333 3.55333,1.79 6.1,1.79v0c2.37333,0 4.19333,-0.48333 5.46,-1.45c1.26667,-0.97333 1.9,-2.29333 1.9,-3.96c0,-1.67333 -0.58667,-2.96667 -1.76,-3.88c-1.16667,-0.91333 -3.29,-1.81667 -6.37,-2.71zM110.36059,-7.15v0c-3.85333,-1.10667 -6.66,-2.47 -8.42,-4.09c-1.76,-1.62 -2.64,-3.61667 -2.64,-5.99v0c0,-2.68667 1.07333,-4.91 3.22,-6.67c2.15333,-1.75333 4.94667,-2.63 8.38,-2.63v0c2.34667,0 4.43667,0.45333 6.27,1.36c1.84,0.90667 3.26333,2.15667 4.27,3.75c1.00667,1.59333 1.51,3.33333 1.51,5.22v0h-4.52c0,-2.06 -0.65667,-3.68 -1.97,-4.86c-1.31333,-1.18 -3.16667,-1.77 -5.56,-1.77v0c-2.21333,0 -3.94333,0.48667 -5.19,1.46c-1.24,0.98 -1.86,2.33667 -1.86,4.07v0c0,1.39333 0.59,2.57 1.77,3.53c1.18,0.96 3.18667,1.83667 6.02,2.63c2.84,0.8 5.06,1.68 6.66,2.64c1.6,0.96 2.78667,2.08 3.56,3.36c0.77333,1.28667 1.16,2.79667 1.16,4.53v0c0,2.76667 -1.07667,4.98 -3.23,6.64c-2.16,1.66667 -5.04333,2.5 -8.65,2.5v0c-2.34667,0 -4.53333,-0.45 -6.56,-1.35c-2.03333,-0.9 -3.6,-2.13 -4.7,-3.69c-1.10667,-1.56 -1.66,-3.33333 -1.66,-5.32v0h4.53c0,2.06 0.76,3.69 2.28,4.89c1.52667,1.19333 3.56333,1.79 6.11,1.79v0c2.37333,0 4.19333,-0.48333 5.46,-1.45c1.26667,-0.97333 1.9,-2.29333 1.9,-3.96c0,-1.67333 -0.58667,-2.96667 -1.76,-3.88c-1.17333,-0.91333 -3.3,-1.81667 -6.38,-2.71z">
</path>
</g>
</g>
</g>
</svg>