<svg class="col-md-4 col-sm-6 col-lg-2 icon" xmlns="http://www.w3.org/2000/svg" x="0px" y="0px"
width="128" height="128"
viewBox="0 0 172 172"
style=" fill:#000000;"><g transform="translate(25.8,25.8) scale(0.7,0.7)"><g fill="none" fill-rule="nonzero" stroke="none" stroke-width="1" stroke-linecap="butt" stroke-linejoin="miter" stroke-miterlimit="10" stroke-dasharray="" stroke-dashoffset="0" font-family="none" font-weight="none" font-size="none" text-anchor="none" style="mix-blend-mode: normal"><path d="M0,172v-172h172v172z" fill="none"></path><g><path d="M83.3125,8.0625c-41.55943,0 -75.25,33.69057 -75.25,75.25c0,41.55943 33.69057,75.25 75.25,75.25c41.55943,0 75.25,-33.69057 75.25,-75.25c0,-41.55943 -33.69057,-75.25 -75.25,-75.25z" fill="#8b8e98"></path><path d="M83.3125,145.125c-34.1381,0 -61.8125,-27.6744 -61.8125,-61.8125c0,-34.1381 27.6744,-61.8125 61.8125,-61.8125c34.1381,0 61.8125,27.6744 61.8125,61.8125c0,34.1381 -27.6744,61.8125 -61.8125,61.8125z" fill="#7e8189"></path><path d="M96.965,116.50313c4.56379,4.89701 7.33051,11.19793 7.8475,17.87188v14.10938c0,1.47813 0.61812,5.72438 2.41875,6.20812l-23.91875,4.35375l-24.1875,-4.32687c1.935,-0.43 2.6875,-4.75688 2.6875,-6.235c0,-1.47813 0,-2.44562 0,-8.73437c-20.93562,4.54188 -25.2625,-11.55625 -25.2625,-11.55625c-3.44,-8.68062 -8.35812,-11.01875 -8.35812,-11.01875c-6.82625,-4.64937 0.51063,-4.56875 0.51063,-4.56875c4.8648,0.64912 9.15333,3.51807 11.61,7.76687c6.71875,11.47562 17.3075,10.535 21.5,8.62687c0.69875,-4.86438 5.64375,-10.56187 7.79375,-12.44313c-16.71625,-1.90812 -34.2925,-8.35813 -34.2925,-37.195c-0.13504,-7.48295 2.61762,-14.73035 7.68625,-20.23687c-2.2859,-6.49302 -2.01689,-13.61238 0.7525,-19.91437c0,0 6.31563,-2.01562 20.69375,7.71313c12.31685,-3.35834 25.30815,-3.35834 37.625,0c14.35125,-9.72875 20.66688,-7.71313 20.66688,-7.71313c2.8133,6.28476 3.13037,13.40441 0.88687,19.91438c5.06548,5.48884 7.827,12.71496 7.71312,20.18312c-0.02687,28.97125 -17.60312,35.34063 -34.37312,37.195z" fill="#faefde"></path><path d="M83.3125,5.375c-38.00882,0.02222 -70.45831,27.45848 -76.7996,64.9346c-6.34129,37.47612 15.27527,74.06084 51.16085,86.58665c0.4312,0.31297 0.94569,0.4907 1.47812,0.51063c29.27557,9.55058 61.42976,0.96809 82.05196,-21.90104c20.62221,-22.86913 25.84544,-55.73657 13.32879,-83.87207c-12.51665,-28.1355 -40.4261,-46.26319 -71.22013,-46.25876zM63.69375,153.1875c0.48975,-1.51248 0.76123,-3.08709 0.80625,-4.67625v-1.45125c0,-1.20938 0,-2.84875 0,-7.31c0.01838,-0.82228 -0.34077,-1.60771 -0.97477,-2.13167c-0.63399,-0.52396 -1.47301,-0.72876 -2.27711,-0.55583c-18.06,3.92375 -21.95687,-9.08375 -22.11812,-9.62125v-0.29563c-1.56913,-4.4775 -4.36237,-8.42528 -8.0625,-11.395c2.86923,1.1801 5.28179,3.2534 6.88,5.9125c7.095,12.17437 18.8125,12.49687 24.99375,9.72875c0.83971,-0.3773 1.42788,-1.15814 1.55875,-2.06938c1.24153,-4.15685 3.62534,-7.88155 6.88,-10.75c0.79219,-0.70789 1.09302,-1.81602 0.76754,-2.82733c-0.32548,-1.01131 -1.21617,-1.73596 -2.27254,-1.84892c-15.77563,-1.80063 -31.90062,-7.31 -31.90062,-34.5075c-0.11148,-6.80628 2.41127,-13.3924 7.04125,-18.3825c0.76675,-0.73365 1.03,-1.8498 0.67188,-2.84875c-1.93855,-5.28342 -1.93855,-11.08346 0,-16.36687c2.28438,0 7.8475,1.04813 17.25375,7.4175c0.65198,0.44748 1.46794,0.58511 2.23062,0.37625c11.85828,-3.24168 24.36922,-3.24168 36.2275,0c0.76269,0.20886 1.57865,0.07123 2.23063,-0.37625c9.43312,-6.39625 15.02313,-7.36375 17.22687,-7.44438c1.99899,5.27047 2.06564,11.0788 0.18812,16.39375c-0.38779,0.96043 -0.18914,2.05824 0.51062,2.82188c4.6202,4.99429 7.13314,11.57992 7.01438,18.3825c0,27.22438 -16.125,32.70688 -31.95437,34.45375c-1.0597,0.12157 -1.94721,0.85834 -2.26171,1.87757c-0.31451,1.01923 0.00352,2.12799 0.81046,2.82556c3.97254,4.39447 6.41465,9.95757 6.96063,15.85625v14.10938c0.03596,1.59669 0.29837,3.18019 0.77938,4.70313c-12.81986,3.61778 -26.39076,3.61778 -39.21062,0zM108.0375,151.575c-0.31962,-0.98235 -0.50053,-2.0045 -0.5375,-3.03688v-14.16312c-0.3156,-5.68434 -2.17379,-11.17531 -5.375,-15.88312c14.91562,-2.52625 31.95438,-10.26625 31.95438,-39.13c0.11779,-7.58407 -2.49584,-14.95756 -7.36375,-20.77437c1.88982,-6.72247 1.43486,-13.88802 -1.29,-20.3175c-0.29634,-0.74127 -0.90689,-1.31243 -1.66625,-1.55875c-0.7525,-0.24188 -7.65937,-2.0425 -21.98375,7.36375c-12.04392,-3.07492 -24.66733,-3.07492 -36.71125,0c-14.32438,-9.40625 -21.23125,-7.60562 -21.98375,-7.36375c-0.75936,0.24632 -1.36991,0.81748 -1.66625,1.55875c-2.7291,6.42848 -3.18415,13.59548 -1.29,20.3175c-4.87003,5.81561 -7.48395,13.18991 -7.36375,20.77438c0,28.62188 16.74313,36.49625 31.52438,39.13c-2.08629,2.50656 -3.6736,5.38925 -4.67625,8.4925c-3.81625,1.075 -11.66375,1.10187 -16.90437,-7.90125c-2.91855,-5.05417 -8.04621,-8.43942 -13.84062,-9.1375c-1.45125,0 -5.10625,0.24188 -5.96625,3.03688c-0.86,2.795 2.44562,5.375 3.92375,6.45l0.34938,0.18812c0.16125,0 4.085,2.15 6.9875,9.48687c0.61813,1.90813 5.96625,16.39375 25.12813,13.84062c0,2.12313 0,3.19813 0,4.03125v1.505c-0.04095,1.03418 -0.23104,2.05703 -0.56437,3.03688c-33.11944,-12.01084 -52.82644,-46.07564 -46.729,-80.77404c6.09744,-34.6984 36.23737,-60.00375 71.46744,-60.00375c35.23007,0 65.37,25.30536 71.46744,60.00375c6.09744,34.6984 -13.60956,68.7632 -46.729,80.77404z" fill="#34495e"></path><path d="M83.3125,99.4375c-1.48427,0 -2.6875,1.20323 -2.6875,2.6875v5.375c0,1.48427 1.20323,2.6875 2.6875,2.6875c1.48427,0 2.6875,-1.20323 2.6875,-2.6875v-5.375c0,-1.48427 -1.20323,-2.6875 -2.6875,-2.6875zM95.675,106.23688c0.39333,1.43232 1.87331,2.27458 3.30562,1.88125c1.43232,-0.39333 2.27458,-1.87331 1.88125,-3.30562l-1.42437,-5.16c-0.42453,-1.3848 -1.8701,-2.18407 -3.26863,-1.80726c-1.39854,0.37681 -2.24689,1.79413 -1.91824,3.20476zM58.45313,92.7725c-0.61953,-0.3589 -1.35667,-0.45576 -2.04788,-0.26908c-0.69122,0.18668 -1.27937,0.64146 -1.63399,1.26345l-2.6875,4.64937c-0.66758,1.27616 -0.21049,2.85172 1.03641,3.57248c1.2469,0.72075 2.84032,0.33045 3.61297,-0.88498l2.6875,-4.64937c0.36113,-0.61627 0.46208,-1.35094 0.28054,-2.04177c-0.18153,-0.69083 -0.63061,-1.28098 -1.24804,-1.6401zM109.865,101.10375c0.45758,0.87472 1.35789,1.42817 2.34498,1.44153c0.98709,0.01336 1.90205,-0.51552 2.38314,-1.37753c0.48109,-0.86202 0.45086,-1.9184 -0.07874,-2.7515l-2.6875,-4.64937c-0.77265,-1.21543 -2.36607,-1.60573 -3.61297,-0.88498c-1.2469,0.72075 -1.70399,2.29632 -1.03641,3.57248zM70.43938,97.74438c-1.43191,-0.37551 -2.89787,0.47763 -3.27875,1.90812l-1.3975,5.16c-0.28786,0.939 -0.04058,1.96024 0.64494,2.66355c0.68552,0.70331 1.70009,0.97667 2.64616,0.71295c0.94606,-0.26371 1.67293,-1.02249 1.89578,-1.97901l1.3975,-5.18688c0.37551,-1.43191 -0.47763,-2.89787 -1.90812,-3.27875zM111.12813,25.42375c-2.00934,-1.00901 -4.0729,-1.90621 -6.18125,-2.6875c-1.36051,-0.42223 -2.81412,0.29045 -3.31352,1.62456c-0.4994,1.33411 0.12893,2.82613 1.43227,3.40106c1.92467,0.72128 3.8087,1.54666 5.64375,2.4725c0.37443,0.19184 0.78867,0.2931 1.20938,0.29563c1.23851,-0.00734 2.31162,-0.86012 2.59849,-2.06497c0.28687,-1.20485 -0.2868,-2.44972 -1.38911,-3.0144zM93.12188,19.59188c-13.87759,-2.19957 -28.09081,0.37776 -40.3125,7.31c-1.06482,0.60339 -1.58747,1.85002 -1.27133,3.03239c0.31614,1.18236 1.39122,2.00179 2.61508,1.99324c0.46168,-0.00141 0.91521,-0.12174 1.31687,-0.34938c11.16535,-6.32339 24.14523,-8.67303 36.81875,-6.665c1.48427,0.23748 2.88002,-0.77323 3.1175,-2.2575c0.23748,-1.48427 -0.77323,-2.88002 -2.2575,-3.1175z" fill="#34495e"></path></g></g></g></svg>
