<svg class="col-md-4 col-sm-6 col-lg-2 icon" xmlns="http://www.w3.org/2000/svg" x="0px" y="0px"
    width="128" height="128"
    viewBox="0 0 172 172"
    style=" fill:#000000;">
    <g transform="translate(25.8,25.8) scale(0.7,0.7)">
    <g fill="none" fill-rule="nonzero" stroke="none" stroke-width="none" stroke-linecap="butt" stroke-linejoin="miter" stroke-miterlimit="10" stroke-dasharray="" stroke-dashoffset="0" font-family="none" font-size="none"  style="mix-blend-mode: normal">
    <path d="M0,172v-172h172v172z" fill="none" stroke="none" stroke-width="1">
    </path>
    <g stroke="none" stroke-width="1">
    <path d="M13.47781,19.46825l14.68988,121.59863c0.52138,4.30806 3.59319,7.88781 7.79375,9.08106l47.12531,13.37569c1.90544,0.54019 3.92375,0.55363 5.83725,0.03494l49.56287,-13.42675c4.33763,-1.17444 7.49544,-4.88319 7.94156,-9.32831l12.22544,-121.44006c0.31981,-3.17394 -2.18762,-5.92594 -5.39919,-5.92594h-134.39112c-3.25187,0 -5.77544,2.82456 -5.38575,6.03075z" fill="#cccccc">
    </path>
    <path d="M140.70944,26.875h-54.70944v123.625c0.80088,0.00538 1.59906,-0.10481 2.37844,-0.33056l40.31788,-11.74706c3.52869,-1.02662 6.09794,-4.27312 6.46075,-8.16194l9.94644,-98.19856c0.258,-2.77887 -1.78181,-5.18688 -4.39406,-5.18688z" fill="#cccccc">
    </path>
    <path d="M86.06719,166.625c-1.24969,0 -2.49938,-0.172 -3.71413,-0.51331l-47.128,-13.37838c-5.25675,-1.49425 -9.07569,-5.94744 -9.72606,-11.34394l-14.69256,-121.59862c-0.27681,-2.28437 0.44344,-4.58219 1.96994,-6.30756c1.54263,-1.73612 3.75981,-2.73319 6.08719,-2.73319h134.39381c2.29512,0 4.4935,0.97556 6.03075,2.67406c1.52381,1.68775 2.27094,3.95063 2.0425,6.21081l-12.22813,121.43738c-0.55363,5.51206 -4.5365,10.19637 -9.9115,11.653l-49.56287,13.42675c-1.16638,0.31444 -2.36231,0.473 -3.56094,0.473zM18.86356,16.125c-0.80088,0 -1.53187,0.32787 -2.06131,0.9245c-0.516,0.58319 -0.74981,1.32762 -0.65575,2.09625v0l14.69256,121.59863c0.39238,3.24113 2.69019,5.91787 5.85875,6.81819l47.12531,13.37569c1.43244,0.4085 2.96431,0.41656 4.39944,0.02419l49.56288,-13.42675c3.23844,-0.87613 5.63837,-3.69262 5.97162,-7.00094l12.22544,-121.44006c0.07525,-0.76325 -0.16662,-1.49694 -0.67994,-2.06669c-0.52944,-0.58319 -1.25775,-0.903 -2.04788,-0.903z" fill="#34495e">
    </path>
    <path d="M153.1875,32.25c-1.48619,0 -2.6875,-1.204 -2.6875,-2.6875v-5.375c0,-1.4835 1.20131,-2.6875 2.6875,-2.6875c1.48619,0 2.6875,1.204 2.6875,2.6875v5.375c0,1.4835 -1.20131,2.6875 -2.6875,2.6875zM139.75,32.25c-1.48619,0 -2.6875,-1.204 -2.6875,-2.6875v-5.375c0,-1.4835 1.20131,-2.6875 2.6875,-2.6875c1.48619,0 2.6875,1.204 2.6875,2.6875v5.375c0,1.4835 -1.20131,2.6875 -2.6875,2.6875zM126.3125,32.25c-1.48619,0 -2.6875,-1.204 -2.6875,-2.6875v-5.375c0,-1.4835 1.20131,-2.6875 2.6875,-2.6875c1.48619,0 2.6875,1.204 2.6875,2.6875v5.375c0,1.4835 -1.20131,2.6875 -2.6875,2.6875zM112.875,32.25c-1.48619,0 -2.6875,-1.204 -2.6875,-2.6875v-5.375c0,-1.4835 1.20131,-2.6875 2.6875,-2.6875c1.48619,0 2.6875,1.204 2.6875,2.6875v5.375c0,1.4835 -1.20131,2.6875 -2.6875,2.6875zM99.4375,32.25c-1.48619,0 -2.6875,-1.204 -2.6875,-2.6875v-5.375c0,-1.4835 1.20131,-2.6875 2.6875,-2.6875c1.48619,0 2.6875,1.204 2.6875,2.6875v5.375c0,1.4835 -1.20131,2.6875 -2.6875,2.6875zM86,32.25c-1.48619,0 -2.6875,-1.204 -2.6875,-2.6875v-5.375c0,-1.4835 1.20131,-2.6875 2.6875,-2.6875c1.48619,0 2.6875,1.204 2.6875,2.6875v5.375c0,1.4835 -1.20131,2.6875 -2.6875,2.6875zM72.5625,32.25c-1.48619,0 -2.6875,-1.204 -2.6875,-2.6875v-5.375c0,-1.4835 1.20131,-2.6875 2.6875,-2.6875c1.48619,0 2.6875,1.204 2.6875,2.6875v5.375c0,1.4835 -1.20131,2.6875 -2.6875,2.6875zM59.125,32.25c-1.48619,0 -2.6875,-1.204 -2.6875,-2.6875v-5.375c0,-1.4835 1.20131,-2.6875 2.6875,-2.6875c1.48619,0 2.6875,1.204 2.6875,2.6875v5.375c0,1.4835 -1.20131,2.6875 -2.6875,2.6875zM45.6875,32.25c-1.48619,0 -2.6875,-1.204 -2.6875,-2.6875v-5.375c0,-1.4835 1.20131,-2.6875 2.6875,-2.6875c1.48619,0 2.6875,1.204 2.6875,2.6875v5.375c0,1.4835 -1.20131,2.6875 -2.6875,2.6875zM32.25,32.25c-1.48619,0 -2.6875,-1.204 -2.6875,-2.6875v-5.375c0,-1.4835 1.20131,-2.6875 2.6875,-2.6875c1.48619,0 2.6875,1.204 2.6875,2.6875v5.375c0,1.4835 -1.20131,2.6875 -2.6875,2.6875zM18.8125,32.25c-1.48619,0 -2.6875,-1.204 -2.6875,-2.6875v-5.375c0,-1.4835 1.20131,-2.6875 2.6875,-2.6875c1.48619,0 2.6875,1.204 2.6875,2.6875v5.375c0,1.4835 -1.20131,2.6875 -2.6875,2.6875z" fill="#34495e">
    </path>
    <path d="M64.5,51.0625c0,22.39494 0,44.79256 0,67.1875c-8.0625,-1.79256 -16.125,-3.58244 -24.1875,-5.375c0.55094,5.375 1.10187,10.75 1.65281,16.125c11.99162,3.4185 23.98056,6.83431 35.97219,10.25281v-88.19031c-4.48006,0 -8.95744,0 -13.4375,0z" fill="#faefde">
    </path>
    <path d="M133.89394,64.629l1.16906,-13.5665c-13.66594,0 -27.33456,0 -41.0005,0c0,19.70744 0,39.41756 0,59.125c8.01412,-1.85169 16.02825,-3.70337 24.04237,-5.55238l-0.84925,12.71994c-7.72925,2.08819 -15.46119,4.17906 -23.19312,6.26994c0,5.375 0,10.75 0,16.125c11.40575,-3.27606 22.8115,-6.54944 34.21725,-9.8255l3.57437,-41.55144c-8.11625,0.99975 -16.23519,2.00219 -24.35412,3.00194c0,-8.95744 0,-17.91756 0,-26.875c8.79888,0.043 17.59506,0.086 26.39394,0.129z" fill="#faefde">
    </path>
    <path d="M77.9375,141.94031c-0.24725,0 -0.4945,-0.03494 -0.73638,-0.10213l-35.97219,-10.25281c-1.05888,-0.301 -1.82481,-1.21744 -1.93769,-2.31125l-1.65281,-16.125c-0.086,-0.86 0.24456,-1.70925 0.88688,-2.28169c0.64769,-0.57512 1.52381,-0.80356 2.37037,-0.61544l20.91681,4.64669v-63.83619c0,-1.4835 1.20131,-2.6875 2.6875,-2.6875h13.4375c1.48619,0 2.6875,1.204 2.6875,2.6875v88.19031c0,0.84119 -0.39506,1.63669 -1.06694,2.14462c-0.473,0.35744 -1.04275,0.54288 -1.62056,0.54288zM44.45394,126.9145l30.79606,8.77738v-81.94188h-8.0625v64.5c0,0.81431 -0.37087,1.58563 -1.00512,2.09625c-0.63694,0.51063 -1.46738,0.70413 -2.26556,0.52675l-20.55131,-4.56606z" fill="#34495e">
    </path>
    <path d="M94.0625,142.4375c-0.57781,0 -1.14487,-0.18544 -1.61787,-0.54019c-0.67456,-0.50794 -1.06963,-1.30344 -1.06963,-2.14731v-16.125c0,-1.21475 0.81431,-2.279 1.98606,-2.59344l21.33875,-5.77006l0.48106,-7.19444l-20.51637,4.73806c-0.78744,0.19081 -1.63131,-0.00269 -2.27631,-0.51331c-0.645,-0.51063 -1.01319,-1.28462 -1.01319,-2.10431v-59.125c0,-1.4835 1.20131,-2.6875 2.6875,-2.6875h41.00319c0.7525,0 1.47275,0.31712 1.98069,0.87075c0.50794,0.55631 0.76056,1.29806 0.69606,2.04788l-1.17175,13.5665c-0.11825,1.39481 -1.40019,2.54238 -2.69019,2.45638l-23.693,-0.11556v21.1345l21.33875,-2.63106c0.7955,-0.09675 1.60981,0.16931 2.193,0.731c0.58319,0.56169 0.8815,1.35719 0.81163,2.16612l-3.57438,41.55144c-0.09406,1.10994 -0.86538,2.04519 -1.935,2.35156l-34.21725,9.82281c-0.24188,0.07525 -0.49181,0.11019 -0.74175,0.11019zM96.75,125.68363v10.50006l29.01156,-8.33125l3.13094,-36.40488l-21.06463,2.59613c-0.75519,0.09137 -1.52919,-0.14513 -2.107,-0.65575c-0.57781,-0.51062 -0.90838,-1.24163 -0.90838,-2.01294v-26.875c0,-0.71487 0.28487,-1.40019 0.79281,-1.90544c0.50794,-0.50525 1.10994,-0.76863 1.90812,-0.78206l23.91606,0.11825l0.70681,-8.18075h-35.38631v53.05931l20.75288,-4.79181c0.82506,-0.19619 1.6985,0.01881 2.34619,0.57244c0.64769,0.55094 0.99437,1.376 0.94062,2.22525l-0.84925,12.71994c-0.07525,1.14488 -0.87344,2.11506 -1.98069,2.41338z" fill="#34495e">
    </path>
    </g>
    <g fill="#34495e" stroke="none" stroke-width="1">
    <path d="M21.52273,-5.26v-12.62h2.36v12.58c0,1.7 -0.51333,3.03 -1.54,3.99c-1.02,0.96 -2.38,1.44 -4.08,1.44v0c-1.76667,0 -3.14333,-0.45 -4.13,-1.35c-0.98,-0.90667 -1.47,-2.17333 -1.47,-3.8v0h2.34c0,1.02 0.28,1.81333 0.84,2.38c0.55333,0.57333 1.36,0.86 2.42,0.86v0c0.96667,0 1.75,-0.30667 2.35,-0.92c0.6,-0.60667 0.90333,-1.46 0.91,-2.56zM39.11273,-0.11l-1.7,-4.64h-7.44l-1.68,4.64h-2.41l6.78,-17.77h2.06l6.79,17.77zM33.69273,-14.99l-3.02,8.31h6.05zM43.68273,-17.88l5.05,14.66l5.08,-14.66h2.56l-6.59,17.77h-2.08l-6.58,-17.77zM69.35273,-0.11l-1.7,-4.64h-7.45l-1.67,4.64h-2.42l6.79,-17.77h2.05l6.8,17.77zM63.93273,-14.99l-3.02,8.31h6.04zM79.38273,-8.03v0c-2.00667,-0.58 -3.47,-1.29 -4.39,-2.13c-0.91333,-0.84667 -1.37,-1.88667 -1.37,-3.12v0c0,-1.4 0.56,-2.55667 1.68,-3.47c1.12,-0.92 2.57333,-1.38 4.36,-1.38v0c1.22,0 2.31,0.23667 3.27,0.71c0.95333,0.47333 1.69333,1.12333 2.22,1.95c0.52667,0.83333 0.79,1.74333 0.79,2.73v0h-2.36c0,-1.08 -0.34333,-1.92667 -1.03,-2.54c-0.68,-0.61333 -1.64333,-0.92 -2.89,-0.92v0c-1.15333,0 -2.05333,0.25333 -2.7,0.76c-0.64667,0.51333 -0.97,1.22 -0.97,2.12v0c0,0.72667 0.30667,1.34 0.92,1.84c0.61333,0.5 1.66,0.95667 3.14,1.37c1.47333,0.42 2.62667,0.88 3.46,1.38c0.83333,0.5 1.45333,1.08333 1.86,1.75c0.4,0.66667 0.6,1.45 0.6,2.35v0c0,1.44 -0.56,2.59333 -1.68,3.46c-1.12667,0.86667 -2.63,1.3 -4.51,1.3v0c-1.22,0 -2.35667,-0.23333 -3.41,-0.7c-1.06,-0.46667 -1.87667,-1.10667 -2.45,-1.92c-0.57333,-0.81333 -0.86,-1.73667 -0.86,-2.77v0h2.35c0,1.07333 0.39667,1.92 1.19,2.54c0.79333,0.62667 1.85333,0.94 3.18,0.94v0c1.24,0 2.19,-0.25333 2.85,-0.76c0.66,-0.50667 0.99,-1.19333 0.99,-2.06c0,-0.87333 -0.30667,-1.54667 -0.92,-2.02c-0.60667,-0.48 -1.71333,-0.95 -3.32,-1.41zM99.69273,-5.75h2.36c-0.22,1.88 -0.91333,3.33 -2.08,4.35c-1.16667,1.02 -2.72,1.53 -4.66,1.53v0c-2.1,0 -3.78333,-0.75 -5.05,-2.25c-1.26667,-1.50667 -1.9,-3.52333 -1.9,-6.05v0v-1.71c0,-1.64667 0.29667,-3.09667 0.89,-4.35c0.59333,-1.25333 1.43,-2.21667 2.51,-2.89c1.08,-0.67333 2.33333,-1.01 3.76,-1.01v0c1.88667,0 3.4,0.52667 4.54,1.58c1.14,1.05333 1.80333,2.51333 1.99,4.38v0h-2.36c-0.2,-1.41333 -0.64,-2.44 -1.32,-3.08c-0.68,-0.63333 -1.63,-0.95 -2.85,-0.95v0c-1.5,0 -2.67333,0.55333 -3.52,1.66c-0.85333,1.10667 -1.28,2.68333 -1.28,4.73v0v1.72c0,1.92667 0.40333,3.46 1.21,4.6c0.80667,1.14 1.93333,1.71 3.38,1.71v0c1.3,0 2.3,-0.29667 3,-0.89c0.69333,-0.58667 1.15333,-1.61333 1.38,-3.08zM115.62273,-0.11l-3.85,-7.19h-4.18v7.19h-2.35v-17.77h5.88c2,0 3.54,0.45333 4.62,1.36c1.08,0.91333 1.62,2.24 1.62,3.98v0c0,1.10667 -0.3,2.07333 -0.9,2.9c-0.6,0.82 -1.43333,1.43333 -2.5,1.84v0l4.18,7.54v0.15zM107.59273,-15.95v6.73h3.6c1.16667,0 2.09333,-0.3 2.78,-0.9c0.68667,-0.6 1.03,-1.40667 1.03,-2.42v0c0,-1.09333 -0.32667,-1.93333 -0.98,-2.52c-0.65333,-0.58667 -1.6,-0.88333 -2.84,-0.89v0zM123.16273,-17.88v17.77h-2.35v-17.77zM133.97273,-7.07h-4.19v6.96h-2.34v-17.77h6.55c1.94667,0 3.47333,0.49667 4.58,1.49c1.1,0.99333 1.65,2.30667 1.65,3.94v0c0,1.72667 -0.54,3.05333 -1.62,3.98c-1.07333,0.93333 -2.61667,1.4 -4.63,1.4zM129.78273,-15.95v6.97h4.21c1.25333,0 2.21667,-0.29667 2.89,-0.89c0.66667,-0.58667 1,-1.44 1,-2.56v0c0,-1.05333 -0.33333,-1.9 -1,-2.54c-0.67333,-0.63333 -1.59,-0.96 -2.75,-0.98v0zM155.49273,-17.88v1.93h-5.71v15.84h-2.33v-15.84h-5.7v-1.93z">
    </path>
    </g>
    <path d="M2.66273,10.13v-38.26h162.83v38.26z" fill="#ff0000" stroke="#50e3c2" stroke-width="3" opacity="0">
    </path>
    </g>
    </g>
</svg>